<svg xmlns="http://www.w3.org/2000/svg" x="0px" y="0px" width="144" height="144" viewBox="0 0 48 48">
    <path fill="#cfd8dc" d="M16 16H32V32H16z"></path>
    <path fill="#cfd8dc" d="M5 19L48 19 43 29 0 29z"></path>
    <path fill="#ffd54f" d="M43 21L30 21 30 18 18 18 18 21 8 21 5 27 18 27 18 30 30 30 30 27 40 27z"></path>
    <path fill="#ffc107" d="M24 30L24 18 18 18 18 21 8 21 5 27 18 27 18 30z"></path>
    <path fill="#90a4ae" d="M16 16L18 18 18 21 16 19z"></path>
    <path fill="#b0bec5" d="M16 16L24 16 24 18 18 18z"></path>
    <path fill="#90a4ae" d="M0 29L5 27 8 21 5 19z"></path>
    <path fill="#b0bec5" d="M5 19L8 21 18 21 16 19z"></path>
    <path fill="#90a4ae" d="M24 30L24 32 16 32 18 30z"></path>
    <path fill="#607d8b" d="M5 27L0 29 16 29 16 32 18 30 18 27z"></path>
    <path fill="#eceff1" d="M32 16L30 18 30 21 32 19z"></path>
    <path fill="#cfd8dc" d="M43 21L48 19 43 29 40 27z"></path>
    <path fill="#90a4ae" d="M30 27L30 30 32 32 32 29z"></path>
    <path fill="#90a4ae" d="M30 27L32 29 43 29 40 27z"></path>
    <path fill="#b0bec5" d="M32 32L30 30 24 30 24 32z"></path>
    <path fill="#eceff1" d="M32 19L30 21 43 21 48 19z"></path>
</svg>