<svg xmlns="http://www.w3.org/2000/svg" x="0px" y="0px" width="30" height="30" viewBox="0 0 30 30">
    <path
        d="M 15 3 C 8.373 3 3 8.373 3 15 C 3 21.627 8.373 27 15 27 C 21.627 27 27 21.627 27 15 C 27 12.22744 26.050006 9.6823234 24.470703 7.6503906 L 25.060547 7.0605469 L 27 9 L 27 3 L 21 3 L 22.939453 4.9394531 L 22.349609 5.5292969 C 20.317677 3.9499937 17.77256 3 15 3 z M 15 6 C 19.282755 6 22.85933 8.9929562 23.769531 13 L 6.2304688 13 C 7.14067 8.9929562 10.717245 6 15 6 z M 21.511719 13.935547 C 22.333719 13.935547 23 14.410094 23 14.996094 C 23 15.582094 22.333719 16.058594 21.511719 16.058594 C 20.690719 16.058594 20.023437 15.582094 20.023438 14.996094 C 20.023438 14.410094 20.689719 13.935547 21.511719 13.935547 z M 13.835938 13.939453 L 15.798828 13.939453 L 15.798828 14.314453 L 15.429688 14.314453 C 15.392687 14.314453 15.363281 14.344859 15.363281 14.380859 L 15.363281 14.513672 L 15.363281 15.498047 L 15.363281 15.615234 C 15.363281 15.650234 15.391734 15.679688 15.427734 15.679688 L 15.808594 15.679688 C 16.142594 15.679688 16.404297 15.382828 16.404297 15.048828 L 16.783203 15.048828 L 16.783203 16.052734 L 16.78125 16.052734 L 13.833984 16.052734 L 13.833984 15.679688 L 14.259766 15.679688 C 14.284766 15.679688 14.304687 15.659766 14.304688 15.634766 L 14.304688 14.396484 C 14.304688 14.351484 14.267656 14.314453 14.222656 14.314453 L 14.201172 14.314453 L 13.835938 14.314453 L 13.835938 13.939453 z M 16.246094 13.939453 L 18.359375 13.939453 L 18.359375 14.314453 L 17.992188 14.314453 L 17.976562 14.314453 C 17.951563 14.314453 17.931641 14.334375 17.931641 14.359375 L 18.564453 15.427734 L 19.158203 14.347656 C 19.158203 14.329656 19.144953 14.314453 19.126953 14.314453 L 18.779297 14.314453 L 18.779297 13.939453 L 20.265625 13.939453 L 20.265625 14.314453 L 19.875 14.314453 L 19.837891 14.316406 C 19.824891 14.316406 19.812734 14.319219 19.802734 14.324219 L 18.865234 16.050781 L 17.707031 16.050781 L 16.720703 14.328125 C 16.711703 14.319125 16.699547 14.314453 16.685547 14.314453 L 16.246094 14.314453 L 16.246094 13.939453 z M 7 13.941406 L 9.1132812 13.941406 L 9.1132812 14.316406 L 8.7460938 14.316406 L 8.7304688 14.316406 C 8.7054687 14.316406 8.6855469 14.336328 8.6855469 14.361328 L 9.3164062 15.427734 L 9.9101562 14.347656 C 9.9101562 14.329656 9.8959062 14.316406 9.8789062 14.316406 L 9.5332031 14.316406 L 9.5332031 13.941406 L 11.019531 13.941406 L 11.019531 14.316406 L 10.628906 14.316406 L 10.591797 14.316406 C 10.579797 14.316406 10.566641 14.319219 10.556641 14.324219 L 9.6191406 16.050781 L 8.4609375 16.050781 L 7.4746094 14.330078 C 7.4646094 14.321078 7.4534531 14.314453 7.4394531 14.314453 L 7 14.314453 L 7 13.941406 z M 12.255859 13.941406 C 13.077859 13.941406 13.742188 14.417906 13.742188 15.003906 C 13.743187 15.589906 13.077859 16.064453 12.255859 16.064453 C 11.433859 16.064453 10.767578 15.589906 10.767578 15.003906 C 10.767578 14.417906 11.433859 13.941406 12.255859 13.941406 z M 21.533203 14.302734 C 21.428203 14.302734 21.331766 14.344156 21.259766 14.410156 C 21.244766 14.424156 21.229797 14.439078 21.216797 14.455078 C 21.114797 14.584078 21.060547 14.785094 21.060547 14.996094 C 21.060547 15.226094 21.149719 15.451891 21.261719 15.587891 C 21.318719 15.657891 21.437203 15.697266 21.533203 15.697266 C 21.630203 15.697266 21.724922 15.659562 21.794922 15.601562 C 21.918922 15.467562 22.005859 15.243094 22.005859 14.996094 C 22.005859 14.785094 21.951609 14.584078 21.849609 14.455078 C 21.775609 14.364078 21.659203 14.302734 21.533203 14.302734 z M 12.275391 14.308594 C 12.170391 14.308594 12.073953 14.350969 12.001953 14.417969 C 11.986953 14.431969 11.973937 14.446891 11.960938 14.462891 C 11.857938 14.591891 11.802734 14.792906 11.802734 15.003906 C 11.802734 15.233906 11.892906 15.459703 12.003906 15.595703 C 12.060906 15.665703 12.178391 15.705078 12.275391 15.705078 C 12.372391 15.705078 12.468109 15.665422 12.537109 15.607422 C 12.662109 15.473422 12.748047 15.250906 12.748047 15.003906 C 12.748047 14.792906 12.693797 14.591891 12.591797 14.462891 C 12.518797 14.369891 12.402391 14.308594 12.275391 14.308594 z M 6.2304688 17 L 23.769531 17 C 22.85933 21.007044 19.282755 24 15 24 C 10.717245 24 7.14067 21.007044 6.2304688 17 z"></path>
</svg>